# xmcd
#
# Track frame offsets: 
#        182
#        18455
#        27930
#        46732
#        64982
#        75505
#        107390
#        136337
#        152905
#        166380
#        179822
#        196302
#        223060
#        238367
#        251222
#        260675
#        272310
#        280017
#        310887
#
# Disc length: 4468 seconds
#
# Revision: 3
# Processed by: cddbd v1.5.2PL0 Copyright (c) Steve Scherf et al.
# Submitted via: ExactAudioCopy v0.99pb4
#
DISCID=13117213
DTITLE=Various Artist - American Folk Blues Festival '83
DYEAR=1983
DGENRE=Blues
TTITLE0=Rock Me Baby
TTITLE1=Heres Rattler Here
TTITLE2=Crossroads
TTITLE3=Midnight Hour
TTITLE4=That's The Wrong Woman
TTITLE5=Red's tribute To Muddy Waters
TTITLE6=Boy From Black Bayou
TTITLE7=She Is Worse
TTITLE8=One String Boogie
TTITLE9=My Baby Walked Away
TTITLE10=C.C. Rider
TTITLE11=When I Lay Down To Rest
TTITLE12=Who's Louisiana Red
TTITLE13=Reagan Is For The Rich Man
TTITLE14=Flip, Flop And Fly
TTITLE15=Mind To Ramble
TTITLE16=Iko Iko
TTITLE17=I Love You
TTITLE18=Baby What Do I Do
EXTD=
EXTT0=
EXTT1=
EXTT2=
EXTT3=
EXTT4=
EXTT5=
EXTT6=
EXTT7=
EXTT8=
EXTT9=
EXTT10=
EXTT11=
EXTT12=
EXTT13=
EXTT14=
EXTT15=
EXTT16=
EXTT17=
EXTT18=
PLAYORDER=
